<?xml version="1.0" standalone="no"?>
<!DOCTYPE svg PUBLIC "-//W3C//DTD SVG 1.1//EN" "http://www.w3.org/Graphics/SVG/1.1/DTD/svg11.dtd" >
<svg xmlns="http://www.w3.org/2000/svg">
<metadata>Generated by IcoMoon</metadata>
<defs>
<font id="icomoon" horiz-adv-x="1024">
<font-face units-per-em="1024" ascent="960" descent="-64" />
<missing-glyph horiz-adv-x="1024" />
<glyph unicode="&#x20;" horiz-adv-x="512" d="" />
<glyph unicode="&#xe900;" glyph-name="Context-Menu" d="M576 704c0-35.346-28.654-64-64-64s-64 28.654-64 64c0 35.346 28.654 64 64 64s64-28.654 64-64zM576 448c0-35.346-28.654-64-64-64s-64 28.654-64 64c0 35.346 28.654 64 64 64s64-28.654 64-64zM576 192c0-35.346-28.654-64-64-64s-64 28.654-64 64c0 35.346 28.654 64 64 64s64-28.654 64-64z" />
<glyph unicode="&#xe901;" glyph-name="Feature-Article" d="M563.2 768h-285.867v-640h469.333v456.533l-183.467 183.467zM576 695.467l98.133-98.133h-98.133v98.133zM320 170.667v554.667h213.333v-170.667h170.667v-384h-384z" />
<glyph unicode="&#xe902;" glyph-name="Feature-Infinite" d="M336.175 287.653c44.21 0 85.771 17.216 117.031 48.476l80.128 80.128 80.128-80.128c31.26-31.26 72.823-48.476 117.031-48.476 44.21 0 85.771 17.217 117.031 48.476s48.476 72.823 48.476 117.031c0 44.21-17.216 85.771-48.476 117.031s-72.821 48.476-117.031 48.476c-44.208 0-85.771-17.216-117.031-48.476l-80.128-80.129-80.128 80.128c-31.26 31.26-72.823 48.476-117.031 48.476-44.21 0-85.771-17.216-117.031-48.476-31.261-31.259-48.477-72.821-48.477-117.031 0-44.207 17.216-85.77 48.476-117.030 31.261-31.26 72.823-48.476 117.032-48.476zM650.365 533.289c21.403 21.403 49.861 33.191 80.128 33.191 30.27 0 58.726-11.787 80.128-33.191 21.404-21.403 33.192-49.861 33.192-80.129s-11.789-58.724-33.192-80.128c-21.403-21.403-49.86-33.191-80.128-33.191s-58.726 11.789-80.128 33.191l-80.129 80.128 80.129 80.129zM256.045 533.289c21.403 21.403 49.86 33.191 80.128 33.191s58.726-11.787 80.128-33.191l80.129-80.129-80.131-80.129c-21.403-21.403-49.86-33.19-80.128-33.19s-58.727 11.787-80.129 33.19c-21.403 21.404-33.19 49.861-33.19 80.128 0.002 30.27 11.789 58.727 33.192 80.131z" />
<glyph unicode="&#xe903;" glyph-name="Feature-Mobile" d="M640 789.333h-256c-46.933 0-85.333-38.4-85.333-85.333v-512c0-46.933 38.4-85.333 85.333-85.333h256c46.933 0 85.333 38.4 85.333 85.333v512c0 46.933-38.4 85.333-85.333 85.333v0zM384 149.333c-25.6 0-42.667 17.067-42.667 42.667v512c0 25.6 17.067 42.667 42.667 42.667h256c25.6 0 42.667-17.067 42.667-42.667v-512c0-25.6-17.067-42.667-42.667-42.667h-256zM512 277.333c-25.6 0-42.667-17.067-42.667-42.667s17.067-42.667 42.667-42.667 42.667 17.067 42.667 42.667-17.067 42.667-42.667 42.667v0z" />
<glyph unicode="&#xe904;" glyph-name="Feature-Personal" d="M332.8 93.867c-4.267 0-8.533 0-12.8 4.267-8.533 4.267-12.8 17.067-8.533 25.6l98.133 260.267h-110.933c-8.533 0-17.067 4.267-21.333 12.8s0 17.067 4.267 21.333l384 384c8.533 8.533 17.067 8.533 25.6 4.267s12.8-17.067 8.533-25.6l-89.6-260.267h115.2c8.533 0 17.067-4.267 21.333-12.8s0-17.067-4.267-21.333l-392.533-384c-8.533-4.267-12.8-8.533-17.067-8.533zM349.867 426.667h89.6c8.533 0 12.8-4.267 17.067-8.533s4.267-12.8 4.267-21.333l-76.8-196.267 285.867 277.333h-89.6c-8.533 0-12.8 4.267-17.067 8.533s-4.267 12.8-4.267 21.333l68.267 204.8-277.333-285.867z" />
<glyph unicode="&#xe905;" glyph-name="Feature-Resources" d="M917.333 196.267l21.333 38.4-149.333 85.333v260.267l-234.667 136.533v115.2h-42.667v-115.2l-234.667-136.533v-260.267l-149.333-85.333 21.333-38.4 140.8 81.067 221.867-128 21.333-12.8 21.333 12.8 221.867 128 140.8-81.067zM520.533 460.8l-183.467 106.667 196.267 115.2 183.467-106.667-196.267-115.2zM320 311.467v217.6l192-110.933v-217.6l-192 110.933zM554.667 200.533v234.667l192 110.933v-234.667l-192-110.933z" />
<glyph unicode="&#xe906;" glyph-name="Feature-Sertificate" d="M759.467 576c0 140.8-115.2 256-256 256s-256-115.2-256-256c0-93.867 51.2-174.933 128-221.867v-281.6l128 85.333 128-85.333v281.6c76.8 42.667 128 128 128 221.867zM588.8 153.6l-59.733 42.667-25.6 17.067-25.6-17.067-59.733-42.667v179.2c25.6-8.533 55.467-17.067 85.333-17.067s59.733 4.267 85.333 12.8v-174.933zM503.467 362.667c-119.467 0-213.333 93.867-213.333 213.333s93.867 213.333 213.333 213.333c119.467 0 213.333-93.867 213.333-213.333s-93.867-213.333-213.333-213.333z" />
<glyph unicode="&#xe907;" glyph-name="Feature-Video" d="M302.933 149.333v597.333l413.867-298.667-413.867-298.667zM345.6 661.333v-426.667l298.667 213.333-298.667 213.333z" />
<glyph unicode="&#xe908;" glyph-name="Lesson-Video" d="M512 870.4c-234.667 0-426.667-192-426.667-426.667s192-426.667 426.667-426.667c234.667 0 426.667 192 426.667 426.667s-192 426.667-426.667 426.667zM422.4 234.667v426.667l298.667-213.333-298.667-213.333z" />
<glyph unicode="&#xe909;" glyph-name="List-Close" d="M512 614.4l-273.067-273.067 64-59.733 209.067 213.333 209.067-213.333 64 59.733z" />
<glyph unicode="&#xe90a;" glyph-name="List-Open" d="M512 281.6l-273.067 273.067 64 59.733 209.067-213.333 209.067 213.333 64-59.733z" />
<glyph unicode="&#xe90b;" glyph-name="Logo-Znak" d="M661.333 797.867l-149.333-149.333-149.333 149.333-277.333-273.067 426.667-426.667 426.667 426.667-277.333 273.067zM123.733 524.8l234.667 234.667 153.6-149.333 149.333 149.333 234.667-234.667-384-388.267-388.267 388.267zM661.333 712.533l-149.333-149.333-149.333 149.333-192-187.733 341.333-341.333 341.333 341.333-192 187.733zM213.333 524.8l149.333 149.333 149.333-149.333 149.333 149.333 149.333-149.333-298.667-298.667-298.667 298.667zM661.333 627.2l-149.333-149.333-149.333 149.333-106.667-102.4 256-256 256 256-106.667 102.4zM298.667 524.8l64 64 149.333-149.333 149.333 149.333 64-64-213.333-213.333-213.333 213.333zM652.8 533.333l-140.8-140.8-140.8 140.8-17.067-21.333 157.867-157.867 157.867 157.867z" />
<glyph unicode="&#xe90c;" glyph-name="Star" horiz-adv-x="1078" d="M538.168 151.579l-316.327-166.544 60.413 352.746-255.914 249.816 353.664 51.465 158.164 320.939 158.164-320.939 353.664-51.465-255.914-249.816 60.413-352.746z" />
<glyph unicode="&#xe90d;" glyph-name="square-o" horiz-adv-x="805" d="M640 804.571h-475.429c-50.286 0-91.429-41.143-91.429-91.429v-475.429c0-50.286 41.143-91.429 91.429-91.429h475.429c50.286 0 91.429 41.143 91.429 91.429v475.429c0 50.286-41.143 91.429-91.429 91.429zM804.571 713.143v-475.429c0-90.857-73.714-164.571-164.571-164.571h-475.429c-90.857 0-164.571 73.714-164.571 164.571v475.429c0 90.857 73.714 164.571 164.571 164.571h475.429c90.857 0 164.571-73.714 164.571-164.571z" />
<glyph unicode="&#xe90e;" glyph-name="Rate" d="M1017.244 820.587c-3.386 11.014-12.857 19.061-24.273 20.626l-98.404 13.49-41.136 83.349c-4.987 10.104-15.276 16.502-26.544 16.502s-21.557-6.398-26.544-16.5l-41.203-83.487-89.139-12.951-89.139 12.951-41.203 83.485c-4.987 10.104-15.276 16.502-26.544 16.502s-21.557-6.396-26.544-16.5l-41.203-83.487-89.139-12.951-89.139 12.951-41.203 83.485c-4.987 10.104-15.276 16.502-26.544 16.502s-21.557-6.398-26.544-16.502l-41.141-83.359-97.926-13.484c-11.396-1.569-20.851-9.599-24.245-20.589s-0.112-22.955 8.415-30.677l71.707-64.931-15.619-91.067c-1.904-11.104 2.662-22.329 11.777-28.952 9.111-6.621 21.198-7.499 31.174-2.254l82.405 43.322 82.405-43.322c10.080-5.299 22.157-4.3 31.174 2.254 9.117 6.623 13.682 17.845 11.777 28.952l-15.74 91.759 47.269 46.077 47.269-46.077-15.74-91.759c-1.904-11.104 2.66-22.329 11.777-28.952 7.872-5.721 17.96-7.144 26.994-4.045 0-19.061 0-160.006 0-178.131l-64.607-75.376c-35.983-41.98-45.582-99.951-25.112-151.127l91.771-233.375c4.454-11.323 15.381-18.769 27.549-18.769h414.414c12.821 0 24.184 8.253 28.151 20.444l53.094 163.23c5.014 15.089 7.558 30.795 7.558 46.695 0 30.288 0 127.865 0 158.391 0 48.966-39.837 88.803-88.803 88.803-11.548 0-22.588-2.216-32.717-6.244-10.283 37.668-44.804 65.446-85.689 65.446-11.548 0-22.588-2.216-32.717-6.244-10.281 37.668-44.802 65.446-85.687 65.446-10.374 0-20.34-1.788-29.601-5.072v64.781c1.709-0.304 3.43-0.507 5.155-0.507 6.137 0 12.247 1.906 17.403 5.654 9.115 6.623 13.68 17.845 11.775 28.952l-15.74 91.759 47.269 46.077 47.269-46.077-15.74-91.759c-1.904-11.104 2.66-22.329 11.777-28.952 9.113-6.621 21.196-7.499 31.174-2.254l82.405 43.322 82.405-43.322c10.080-5.299 22.157-4.3 31.174 2.254 9.115 6.623 13.682 17.845 11.777 28.952l-15.61 91.013 72.124 64.929c8.563 7.706 11.876 19.685 8.488 30.698zM256.496 757.234c-6.978-6.8-10.161-16.598-8.513-26.201l8.231-47.981-43.091 22.655c-8.626 4.535-18.925 4.535-27.551 0l-43.091-22.655 8.231 47.981c1.711 9.983-1.798 20.146-9.307 26.947l-36.709 33.24 50.598 6.966c9.729 1.34 18.159 7.418 22.507 16.223l21.546 43.658 21.546-43.658c4.314-8.736 12.646-14.793 22.288-16.194l48.177-7-34.86-33.982zM633.739 480.936c16.322 0 29.601-13.279 29.601-29.601 0-22.319 0-159.364 0-177.606 0-16.348 13.253-29.601 29.601-29.601s29.601 13.253 29.601 29.601v118.404c0 16.322 13.279 29.601 29.601 29.601s29.601-13.279 29.601-29.601c0-12.549 0-105.855 0-118.404 0-16.348 13.253-29.601 29.601-29.601s29.601 13.253 29.601 29.601v59.202c0 16.322 13.279 29.601 29.601 29.601s29.601-13.279 29.601-29.601c0-30.527 0-128.104 0-158.391 0-9.561-1.533-19.010-4.559-28.082-0.024-0.069-0.043-0.136-0.067-0.205l-46.474-142.88h-372.748l-84.456 214.766c-12.32 30.803-6.562 65.584 15.027 90.775l19.659 22.935v-58.119c0-16.348 13.253-29.601 29.601-29.601s29.601 13.253 29.601 29.601c0 70.326 0 273.354 0 355.213 0 16.322 13.279 29.601 29.601 29.601s29.601-13.279 29.601-29.601c0-15.61 0-339.635 0-355.213 0-16.348 13.253-29.601 29.601-29.601s29.601 13.253 29.601 29.601v177.606c0 16.322 13.279 29.601 29.601 29.601zM570.267 757.234c-6.978-6.8-10.161-16.598-8.513-26.201l5.119-29.844c-14.544 10.406-32.33 16.555-51.537 16.555-21.512 0-41.26-7.692-56.645-20.468l5.79 33.757c1.648 9.603-1.535 19.401-8.513 26.201l-34.86 33.982 48.177 7c9.642 1.401 17.974 7.457 22.288 16.194l21.546 43.658 21.546-43.658c4.314-8.736 12.646-14.793 22.288-16.194l48.177-7-34.86-33.982zM884.894 758.038c-7.55-6.796-11.087-16.991-9.37-27.004l8.231-47.981-43.091 22.655c-4.314 2.267-9.044 3.4-13.774 3.4s-9.462-1.133-13.774-3.4l-43.093-22.655 8.231 47.981c1.648 9.603-1.535 19.401-8.513 26.201l-34.86 33.982 48.177 7c9.642 1.401 17.974 7.457 22.288 16.194l21.546 43.658 21.546-43.658c4.349-8.811 12.788-14.891 22.524-16.225l50.795-6.964-36.861-33.183z" />
<glyph unicode="&#xe90f;" glyph-name="Transformation" horiz-adv-x="979" d="M968.793 350.485l-82.371 165.964c-4.283 273.299-251.572 483.865-530.135 429.34-174.359-34.125-313.274-175.41-345.671-351.57-22.806-124.011 4.575-247.352 77.103-347.307 59.21-81.597 91.817-179.499 91.819-275.673 0-16.388 13.188-29.674 29.456-29.674h412.382c16.267 0 29.456 13.286 29.456 29.674v77.548c0 8.508 6.871 15.43 15.317 15.43h131.963c48.725 0 88.367 39.935 88.367 89.022v89.022h15.922c25.915 0 49.519 13.258 63.143 35.466s14.84 49.409 3.252 72.758zM915.429 308.93c-1.351-2.2-5.322-7.318-13.029-7.318h-45.377c-16.267 0-29.456-13.286-29.456-29.674v-118.698c0-16.362-13.214-29.674-29.456-29.674h-131.963c-40.929 0-74.228-33.545-74.228-74.778v-47.876h-354.378c-6.009 98.911-41.786 197.676-102.266 281.022-62.856 86.628-86.558 193.693-66.735 301.471 28.024 152.391 148.175 274.606 298.978 304.122 241.779 47.322 460.045-136.138 460.045-378.196 0-4.607 1.064-9.149 3.109-13.27l85.423-172.119c3.45-6.944 0.683-12.811-0.668-15.013zM441.044 837.565c-177.207 0-321.377-144.163-321.39-321.366 0-0.008-0.002-0.016-0.002-0.025s0.002-0.018 0.002-0.025c0.014-177.205 144.184-321.366 321.39-321.366 177.214 0 321.39 144.176 321.39 321.391s-144.176 321.391-321.39 321.391zM470.261 777.499c121.698-13.516 218.59-110.411 232.105-232.106h-64.62c-22.596 0-36.426-24.505-25.29-43.847 2.583-4.462 3.892-9.371 3.892-14.587 0-16.11-13.107-29.217-29.217-29.217s-29.217 13.107-29.217 29.217c0 5.218 1.309 10.125 3.89 14.587 11.124 19.32-2.678 43.847-25.29 43.847h-66.25v29.217c48.331 0 87.651 39.32 87.651 87.651s-39.32 87.651-87.651 87.651v27.587h-0.002zM411.828 777.499v-64.62c0-22.727 24.718-36.377 43.847-25.29 4.462 2.583 9.371 3.892 14.587 3.892 16.11 0 29.217-13.107 29.217-29.217s-13.107-29.217-29.217-29.217c-5.216 0-10.125 1.309-14.587 3.892-19.622 11.387-43.847-3.167-43.847-25.29v-66.253h-29.217c0 48.331-39.32 87.651-87.651 87.651s-87.651-39.32-87.651-87.651h-27.589c13.516 121.695 110.411 218.588 232.107 232.104zM411.828 254.851c-121.698 13.516-218.59 110.411-232.105 232.106h64.618c10.442 0 20.092 5.573 25.31 14.62 5.218 9.046 5.21 20.189-0.019 29.227-2.581 4.462-3.89 9.369-3.89 14.587 0 16.11 13.107 29.217 29.217 29.217s29.217-13.107 29.217-29.217c0-5.216-1.309-10.125-3.892-14.587-5.23-9.040-5.236-20.181-0.019-29.227 5.218-9.048 14.866-14.62 25.31-14.62h66.252v-29.217c-48.331 0-87.651-39.32-87.651-87.651s39.32-87.651 87.651-87.651v-27.587h0.002zM470.263 254.851v64.62c0 10.442-5.573 20.092-14.62 25.31-9.046 5.218-20.189 5.21-29.227-0.019-4.462-2.583-9.371-3.892-14.587-3.892-16.11 0-29.217 13.107-29.217 29.217s13.107 29.217 29.217 29.217c5.216 0 10.125-1.309 14.587-3.892 9.038-5.23 20.181-5.236 29.227-0.019 9.048 5.218 14.62 14.866 14.62 25.31v66.253h29.217c0-48.331 39.32-87.651 87.651-87.651s87.651 39.32 87.651 87.651h27.585c-13.514-121.693-110.409-218.588-232.103-232.104z" />
<glyph unicode="&#xe910;" glyph-name="Moderation" horiz-adv-x="1046" d="M879.655 756.87h-657.4l-158.254-271.632 486.956-546.455 486.958 546.455-158.258 271.632zM948.42 518.843h-186.239l98.471 150.643 87.769-150.643zM806.506 696.998l-99.959-152.918-99.957 152.918h199.917zM650.917 518.843h-199.919l99.957 152.918 99.961-152.918zM495.322 696.998l-99.957-152.916-99.957 152.916h199.915zM241.258 669.484l98.471-150.643h-186.235l87.765 150.643zM168.138 458.97h204.784l108.278-351.311-313.062 351.311zM436.261 458.97h229.391l-114.696-372.136-114.694 372.136zM620.714 107.661l108.278 351.309h204.784l-313.062-351.309zM861.927 54.974v39.635h-57.075v-39.635h-39.635v-57.077h39.635v-39.636h57.075v39.636h39.638v57.077zM121.753 912.018v39.635h-57.075v-39.635h-39.635v-57.075h39.635v-39.638h57.075v39.638h39.638v57.075zM64 649.739c0-16.136-13.081-29.217-29.217-29.217s-29.217 13.081-29.217 29.217c0 16.136 13.081 29.217 29.217 29.217s29.217-13.081 29.217-29.217zM979.478 182.261c0-16.136-13.081-29.217-29.217-29.217s-29.217 13.081-29.217 29.217c0 16.136 13.081 29.217 29.217 29.217s29.217-13.081 29.217-29.217zM356.174 883.478c0-16.136-13.081-29.217-29.217-29.217s-29.217 13.081-29.217 29.217c0 16.136 13.081 29.217 29.217 29.217s29.217-13.081 29.217-29.217z" />
<glyph unicode="&#xe911;" glyph-name="m-calendar" horiz-adv-x="1146" d="M970.362-64h-792.381c-97.524 0-177.981 80.457-177.981 177.981v521.752c0 97.524 80.457 177.981 177.981 177.981h792.381c97.524 0 177.981-80.457 177.981-177.981v-524.19c-2.438-95.086-82.895-175.543-177.981-175.543zM177.981 752.762c-63.39 0-117.029-51.2-117.029-117.029v-524.19c0-63.39 51.2-117.029 117.029-117.029h792.381c63.39 0 117.029 51.2 117.029 117.029v524.19c0 63.39-51.2 117.029-117.029 117.029h-792.381zM251.124 682.057c-17.067 0-31.695 14.629-31.695 29.257v219.429c0 14.629 14.629 29.257 31.695 29.257s31.695-14.629 31.695-31.695v-216.99c-2.438-14.629-17.067-29.257-31.695-29.257zM885.029 682.057c-17.067 0-31.695 14.629-31.695 31.695v216.99c0 14.629 14.629 29.257 31.695 29.257s31.695-14.629 31.695-31.695v-216.99c-2.438-14.629-17.067-29.257-31.695-29.257zM165.79 521.143h207.238v-60.952h-207.238v60.952zM165.79 350.476h207.238v-60.952h-207.238v60.952zM165.79 204.19h207.238v-60.952h-207.238v60.952zM458.362 521.143h207.238v-60.952h-207.238v60.952zM458.362 350.476h207.238v-60.952h-207.238v60.952zM458.362 204.19h207.238v-60.952h-207.238v60.952zM775.314 521.143h207.238v-60.952h-207.238v60.952zM775.314 350.476h207.238v-60.952h-207.238v60.952zM775.314 204.19h207.238v-60.952h-207.238v60.952z" />
<glyph unicode="&#xe912;" glyph-name="play" horiz-adv-x="809" d="M790.857 421.143l-758.857-421.714c-17.714-9.714-32-1.143-32 18.857v841.143c0 20 14.286 28.571 32 18.857l758.857-421.714c17.714-9.714 17.714-25.714 0-35.429z" />
<glyph unicode="&#xe913;" glyph-name="wallet" d="M1021.528 483.155h-49.407v225.919c0 54.162-44.327 98.225-98.814 98.225h-66.917l-68.479 122.388c-10.437 18.704-30.299 30.313-51.84 30.313-10.040 0-20-2.574-28.795-7.425l-262.808-145.274h-293.559c-54.487 0-98.814-44.063-98.814-98.225v-674.474c0-54.162 44.327-98.225 98.814-98.225h772.397c54.487 0 98.814 44.063 98.814 98.225v198.081h49.407v250.47zM864.942 758.257c24.768 0 45.001-18.705 47.719-42.638h-60.442l-23.837 42.638h36.56zM674.829 895.413c8.224 4.584 19.292 1.378 23.832-6.765l96.802-173.012h-445.886l325.252 179.776zM914.767 48.098c0-31.193-25.538-56.578-56.918-56.578h-741.487c-31.38 0-56.918 25.386-56.918 56.578v647.482c0 31.193 25.538 56.578 56.918 56.578h213.588l-90.99-50.299h-110.739c-10.491 0-18.973-8.448-18.973-18.859s8.481-18.859 18.973-18.859h786.547v-185.457h-138.742c-64.431 0-116.868-52.127-116.868-116.17v-8.111c0-64.046 52.44-116.17 116.868-116.17h138.742v-190.135zM966.408 281.679h-172.033c-40.216 0-72.931 32.517-72.931 72.496v7.495c0 39.976 32.712 72.496 72.931 72.496h172.033v-152.486zM848.601 356.308c0-23.968-19.527-43.375-43.635-43.375-24.112 0-43.635 19.41-43.635 43.375s19.527 43.375 43.635 43.375c24.112 0.003 43.635-19.425 43.635-43.375z" />
<glyph unicode="&#xe914;" glyph-name="idea" horiz-adv-x="875" d="M388.603 960c211.686 0 384.236-168.71 387.085-377.16l97.499-276.952h-97.465v-206.368h-189.135v-163.518h-444.511v346.786c-40.99 33.52-75.043 75.514-99.013 122.25-27.59 53.8-41.583 111.858-41.583 172.56 0.002 210.858 173.664 382.402 387.123 382.402zM191.532 321.66l12.13-9.13v-315.694h321.341v163.518h189.135v206.37h72.429l-72.429 205.74v5.138c0 177.31-146.035 321.564-325.534 321.564-179.501 0-325.536-144.254-325.536-321.566 0-101.212 46.821-194.5 128.465-255.94zM388.603 795.222c115.004 0 208.572-92.424 208.572-206.030 0-54.4-21.267-105.712-59.886-144.484l-2.814-2.824c-15.75-16.412-26.647-36.502-31.737-58.448v-51.474c0-51.642-42.533-93.656-94.812-93.656h-38.645c-52.28 0-94.812 42.014-94.812 93.656v51.474c-5.082 21.914-15.957 41.98-31.672 58.378l-2.881 2.894c-38.619 38.774-59.886 90.086-59.886 144.484 0.002 113.606 93.569 206.030 208.576 206.030zM369.279 299.142h38.645c18.321 0 33.227 14.724 33.227 32.822v24.396h-105.098v-24.396h-0.002c0-18.098 14.906-32.822 33.227-32.822zM409.247 589.194c0 11.244-9.261 20.394-20.644 20.394s-20.646-9.148-20.646-20.394c0-11.244 9.263-20.392 20.646-20.392s20.644 9.148 20.644 20.392zM282.934 488.264l0.674-0.664c20.332-20.010 35.626-44.020 45.007-70.406h29.196v96.702c-30.125 12.066-51.437 41.26-51.437 75.294 0 44.788 36.89 81.228 82.231 81.228s82.229-36.438 82.229-81.228c0-34.034-21.31-63.23-51.435-75.294v-96.702h29.194c9.376 26.388 24.675 50.396 45.007 70.406l0.652 0.642c26.669 27.218 41.34 63.016 41.34 100.948 0 80.060-65.938 145.196-146.987 145.196s-146.989-65.134-146.989-145.196c-0.002-37.92 14.663-73.708 41.318-100.926z" />
<glyph unicode="&#xea0d;" glyph-name="cancel-circle" d="M512 960c-282.77 0-512-229.23-512-512s229.23-512 512-512 512 229.23 512 512-229.23 512-512 512zM512 32c-229.75 0-416 186.25-416 416s186.25 416 416 416 416-186.25 416-416-186.25-416-416-416zM672 704l-160-160-160 160-96-96 160-160-160-160 96-96 160 160 160-160 96 96-160 160 160 160z" />
<glyph unicode="&#xf073;" glyph-name="calendar" horiz-adv-x="951" d="M73.143 0h164.571v164.571h-164.571v-164.571zM274.286 0h182.857v164.571h-182.857v-164.571zM73.143 201.143h164.571v182.857h-164.571v-182.857zM274.286 201.143h182.857v182.857h-182.857v-182.857zM73.143 420.571h164.571v164.571h-164.571v-164.571zM493.714 0h182.857v164.571h-182.857v-164.571zM274.286 420.571h182.857v164.571h-182.857v-164.571zM713.143 0h164.571v164.571h-164.571v-164.571zM493.714 201.143h182.857v182.857h-182.857v-182.857zM292.571 694.857v164.571c0 9.714-8.571 18.286-18.286 18.286h-36.571c-9.714 0-18.286-8.571-18.286-18.286v-164.571c0-9.714 8.571-18.286 18.286-18.286h36.571c9.714 0 18.286 8.571 18.286 18.286zM713.143 201.143h164.571v182.857h-164.571v-182.857zM493.714 420.571h182.857v164.571h-182.857v-164.571zM713.143 420.571h164.571v164.571h-164.571v-164.571zM731.429 694.857v164.571c0 9.714-8.571 18.286-18.286 18.286h-36.571c-9.714 0-18.286-8.571-18.286-18.286v-164.571c0-9.714 8.571-18.286 18.286-18.286h36.571c9.714 0 18.286 8.571 18.286 18.286zM950.857 731.428v-731.429c0-40-33.143-73.143-73.143-73.143h-804.571c-40 0-73.143 33.143-73.143 73.143v731.429c0 40 33.143 73.143 73.143 73.143h73.143v54.857c0 50.286 41.143 91.429 91.429 91.429h36.571c50.286 0 91.429-41.143 91.429-91.429v-54.857h219.429v54.857c0 50.286 41.143 91.429 91.429 91.429h36.571c50.286 0 91.429-41.143 91.429-91.429v-54.857h73.143c40 0 73.143-33.143 73.143-73.143z" />
<glyph unicode="&#xf099;" glyph-name="tw" horiz-adv-x="951" d="M925.714 717.714c-25.143-36.571-56.571-69.143-92.571-95.429 0.571-8 0.571-16 0.571-24 0-244-185.714-525.143-525.143-525.143-104.571 0-201.714 30.286-283.429 82.857 14.857-1.714 29.143-2.286 44.571-2.286 86.286 0 165.714 29.143 229.143 78.857-81.143 1.714-149.143 54.857-172.571 128 11.429-1.714 22.857-2.857 34.857-2.857 16.571 0 33.143 2.286 48.571 6.286-84.571 17.143-148 91.429-148 181.143v2.286c24.571-13.714 53.143-22.286 83.429-23.429-49.714 33.143-82.286 89.714-82.286 153.714 0 34.286 9.143 65.714 25.143 93.143 90.857-112 227.429-185.143 380.571-193.143-2.857 13.714-4.571 28-4.571 42.286 0 101.714 82.286 184.571 184.571 184.571 53.143 0 101.143-22.286 134.857-58.286 41.714 8 81.714 23.429 117.143 44.571-13.714-42.857-42.857-78.857-81.143-101.714 37.143 4 73.143 14.286 106.286 28.571z" />
<glyph unicode="&#xf09a;" glyph-name="fb" horiz-adv-x="602" d="M548 944v-150.857h-89.714c-70.286 0-83.429-33.714-83.429-82.286v-108h167.429l-22.286-169.143h-145.143v-433.714h-174.857v433.714h-145.714v169.143h145.714v124.571c0 144.571 88.571 223.429 217.714 223.429 61.714 0 114.857-4.571 130.286-6.857z" />
<glyph unicode="&#xf0c8;" glyph-name="square" horiz-adv-x="878" d="M877.714 713.143v-548.571c0-90.857-73.714-164.571-164.571-164.571h-548.571c-90.857 0-164.571 73.714-164.571 164.571v548.571c0 90.857 73.714 164.571 164.571 164.571h548.571c90.857 0 164.571-73.714 164.571-164.571z" />
<glyph unicode="&#xf0e0;" glyph-name="envelope" d="M1024 545.143v-453.714c0-50.286-41.143-91.429-91.429-91.429h-841.143c-50.286 0-91.429 41.143-91.429 91.429v453.714c17.143-18.857 36.571-35.429 57.714-49.714 94.857-64.571 190.857-129.143 284-197.143 48-35.429 107.429-78.857 169.714-78.857h1.143c62.286 0 121.714 43.429 169.714 78.857 93.143 67.429 189.143 132.571 284.571 197.143 20.571 14.286 40 30.857 57.143 49.714zM1024 713.143c0-64-47.429-121.714-97.714-156.571-89.143-61.714-178.857-123.429-267.429-185.714-37.143-25.714-100-78.286-146.286-78.286h-1.143c-46.286 0-109.143 52.571-146.286 78.286-88.571 62.286-178.286 124-266.857 185.714-40.571 27.429-98.286 92-98.286 144 0 56 30.286 104 91.429 104h841.143c49.714 0 91.429-41.143 91.429-91.429z" />
<glyph unicode="&#xf14a;" glyph-name="check-square" horiz-adv-x="878" d="M391.429 208.571l350.857 350.857c14.286 14.286 14.286 37.143 0 51.429l-58.286 58.286c-14.286 14.286-37.143 14.286-51.429 0l-266.857-266.857-120.571 120.571c-14.286 14.286-37.143 14.286-51.429 0l-58.286-58.286c-14.286-14.286-14.286-37.143 0-51.429l204.571-204.571c14.286-14.286 37.143-14.286 51.429 0zM877.714 713.143v-548.571c0-90.857-73.714-164.571-164.571-164.571h-548.571c-90.857 0-164.571 73.714-164.571 164.571v548.571c0 90.857 73.714 164.571 164.571 164.571h548.571c90.857 0 164.571-73.714 164.571-164.571z" />
<glyph unicode="&#xf274;" glyph-name="calendar-check-o" horiz-adv-x="951" d="M744.571 400l-292.571-292.571c-7.429-6.857-18.857-6.857-26.286 0l-164.571 164.571c-6.857 7.429-6.857 18.857 0 25.714l26.286 26.286c6.857 6.857 18.286 6.857 25.714 0l125.714-125.714 253.714 253.714c7.429 6.857 18.857 6.857 25.714 0l26.286-26.286c6.857-6.857 6.857-18.286 0-25.714zM73.143 0h804.571v585.143h-804.571v-585.143zM292.571 694.857v164.571c0 10.286-8 18.286-18.286 18.286h-36.571c-10.286 0-18.286-8-18.286-18.286v-164.571c0-10.286 8-18.286 18.286-18.286h36.571c10.286 0 18.286 8 18.286 18.286zM731.429 694.857v164.571c0 10.286-8 18.286-18.286 18.286h-36.571c-10.286 0-18.286-8-18.286-18.286v-164.571c0-10.286 8-18.286 18.286-18.286h36.571c10.286 0 18.286 8 18.286 18.286zM950.857 731.428v-731.429c0-40-33.143-73.143-73.143-73.143h-804.571c-40 0-73.143 33.143-73.143 73.143v731.429c0 40 33.143 73.143 73.143 73.143h73.143v54.857c0 50.286 41.143 91.429 91.429 91.429h36.571c50.286 0 91.429-41.143 91.429-91.429v-54.857h219.429v54.857c0 50.286 41.143 91.429 91.429 91.429h36.571c50.286 0 91.429-41.143 91.429-91.429v-54.857h73.143c40 0 73.143-33.143 73.143-73.143z" />
</font>
</defs>
</svg>
